<svg width="24" height="24" viewBox="0 0 24 24" fill="none" xmlns="http://www.w3.org/2000/svg">
<path fill-rule="evenodd" clip-rule="evenodd" d="M12 22C17.5228 22 22 17.5228 22 12C22 6.47715 17.5228 2 12 2C6.47715 2 2 6.47715 2 12C2 17.5228 6.47715 22 12 22ZM7.05018 12.521L11.0002 8.57101V18.156C11.0002 18.4212 11.1055 18.6756 11.2931 18.8631C11.4806 19.0507 11.735 19.156 12.0002 19.156C12.2654 19.156 12.5198 19.0507 12.7073 18.8631C12.8948 18.6756 13.0002 18.4212 13.0002 18.156V8.57001L16.9502 12.52C17.1395 12.6978 17.3906 12.795 17.6503 12.7909C17.9099 12.7869 18.1579 12.682 18.3416 12.4984C18.5253 12.3148 18.6304 12.067 18.6346 11.8073C18.6388 11.5476 18.5418 11.2965 18.3642 11.107L12.7072 5.45001C12.6145 5.35683 12.5044 5.28288 12.383 5.23241C12.2617 5.18195 12.1316 5.15598 12.0002 5.15598C11.8688 5.15598 11.7387 5.18195 11.6173 5.23241C11.496 5.28288 11.3858 5.35683 11.2932 5.45001L5.63618 11.107C5.45402 11.2956 5.35323 11.5482 5.35551 11.8104C5.35778 12.0726 5.46295 12.3234 5.64836 12.5088C5.83377 12.6942 6.08458 12.7994 6.34678 12.8017C6.60898 12.804 6.86158 12.7032 7.05018 12.521Z" fill="black"/>
</svg>
