<svg width="24" height="24" viewBox="0 0 24 24" fill="none" xmlns="http://www.w3.org/2000/svg">
<path d="M6.15378 4C5.01244 4 4.16889 4.99911 4.20711 6.08178C4.24267 7.12267 4.19556 8.47111 3.856 9.56978C3.51556 10.672 2.94044 11.3707 2 11.4604V12.472C2.94044 12.5618 3.51556 13.2604 3.856 14.3627C4.19556 15.4622 4.24267 16.8098 4.20622 17.8507C4.16889 18.9333 5.01244 19.9324 6.15467 19.9324H17.8471C18.9884 19.9324 19.8329 18.9333 19.7956 17.8507C19.7591 16.8098 19.8062 15.4622 20.1449 14.3627C20.4862 13.2604 21.0604 12.5618 22 12.472V11.4604C21.0596 11.3707 20.4862 10.672 20.1449 9.56978C19.8062 8.47111 19.7591 7.12267 19.7956 6.08178C19.8329 4.99911 18.9884 4 17.8471 4H6.15378ZM15.5591 13.8071C15.5591 15.2987 14.4471 16.2036 12.6009 16.2036H9.45778C9.41323 16.2037 9.36909 16.195 9.3279 16.178C9.28671 16.1611 9.24927 16.1361 9.21773 16.1047C9.18619 16.0732 9.16116 16.0358 9.14409 15.9947C9.12701 15.9535 9.11822 15.9094 9.11822 15.8649V8.06756C9.11834 8.02308 9.12721 7.97907 9.14434 7.93802C9.16147 7.89698 9.18651 7.85971 9.21804 7.82834C9.24957 7.79698 9.28697 7.77213 9.32811 7.75522C9.36924 7.73831 9.4133 7.72966 9.45778 7.72978H12.5822C14.1218 7.72978 15.1324 8.56267 15.1324 9.84356C15.1324 10.7413 14.4524 11.5467 13.5867 11.6871V11.7342C14.7653 11.8631 15.5591 12.68 15.5591 13.8071ZM12.2578 8.80356H10.4658V11.3351H11.9751C13.1422 11.3351 13.7849 10.8649 13.7849 10.0249C13.7849 9.23822 13.232 8.80356 12.2578 8.80356ZM10.4658 12.3387V15.1289H12.3236C13.5387 15.1289 14.1813 14.6409 14.1813 13.7244C14.1813 12.8089 13.5209 12.3387 12.2453 12.3387H10.4658Z" fill="black"/>
</svg>
