<svg width="24" height="24" viewBox="0 0 24 24" fill="none" xmlns="http://www.w3.org/2000/svg">
<path fill-rule="evenodd" clip-rule="evenodd" d="M8.66708 1.25002C7.80006 1.24938 6.95535 1.52475 6.25528 2.03625C5.55522 2.54775 5.03615 3.26882 4.77327 4.09502C4.51038 4.92122 4.51732 5.80966 4.79308 6.63166C5.06884 7.45365 5.59911 8.16653 6.30708 8.66702C5.77404 9.04407 5.33933 9.5436 5.0395 10.1236C4.73967 10.7036 4.58348 11.3471 4.58408 12C4.58408 13.376 5.26508 14.594 6.30908 15.333C5.73715 15.7379 5.27904 16.2831 4.97882 16.9162C4.6786 17.5494 4.54638 18.2491 4.59487 18.9482C4.64336 19.6472 4.87094 20.322 5.25571 20.9076C5.64048 21.4932 6.16949 21.97 6.79184 22.292C7.41419 22.614 8.10894 22.7704 8.80924 22.7462C9.50953 22.7219 10.1918 22.5179 10.7904 22.1537C11.389 21.7894 11.8838 21.2773 12.2272 20.6665C12.5706 20.0556 12.751 19.3667 12.7511 18.666V15.162C13.1759 15.5062 13.6654 15.7615 14.1907 15.9129C14.716 16.0642 15.2664 16.1086 15.8091 16.0433C16.3519 15.9779 16.876 15.8043 17.3504 15.5326C17.8248 15.2609 18.2398 14.8967 18.5708 14.4617C18.9018 14.0266 19.1421 13.5295 19.2773 12.9998C19.4126 12.4701 19.4401 11.9186 19.3583 11.3781C19.2764 10.8376 19.0868 10.319 18.8008 9.85315C18.5148 9.38728 18.1381 8.98359 17.6931 8.66603C18.4011 8.16553 18.9313 7.45265 19.2071 6.63066C19.4828 5.80866 19.4898 4.92022 19.2269 4.09402C18.964 3.26782 18.4449 2.54675 17.7449 2.03525C17.0448 1.52375 16.2001 1.24838 15.3331 1.24902L8.66708 1.25002ZM11.2501 14.583H8.66708C8.32788 14.583 7.99199 14.5162 7.67861 14.3864C7.36523 14.2566 7.08048 14.0663 6.84062 13.8265C6.60077 13.5866 6.41051 13.3019 6.2807 12.9885C6.15089 12.6751 6.08408 12.3392 6.08408 12C6.08408 11.6608 6.15089 11.3249 6.2807 11.0116C6.41051 10.6982 6.60077 10.4134 6.84062 10.1736C7.08048 9.93371 7.36523 9.74345 7.67861 9.61364C7.99199 9.48384 8.32788 9.41702 8.66708 9.41702H11.2501V12V14.583ZM8.66708 7.91702H11.2501V2.75002H8.66708C7.98189 2.75002 7.32477 3.02221 6.84027 3.50671C6.35577 3.99121 6.08358 4.64834 6.08358 5.33352C6.08358 6.01871 6.35577 6.67583 6.84027 7.16034C7.32477 7.64484 7.98189 7.91702 8.66708 7.91702ZM17.9171 5.33302C17.9173 6.01773 17.6457 6.67453 17.162 7.15907C16.6782 7.6436 16.0218 7.91623 15.3371 7.91702H12.7501V2.75002H15.3341C15.6733 2.75002 16.0092 2.81684 16.3226 2.94664C16.6359 3.07645 16.9207 3.26671 17.1605 3.50657C17.4004 3.74642 17.5907 4.03117 17.7205 4.34455C17.8503 4.65794 17.9171 4.99382 17.9171 5.33302ZM12.7501 11.997C12.7509 11.313 13.023 10.6572 13.5066 10.1736C13.9903 9.68989 14.6461 9.41782 15.3301 9.41702H15.3361C15.8467 9.41762 16.3457 9.56954 16.77 9.85359C17.1943 10.1376 17.5249 10.5411 17.72 11.0129C17.9152 11.4848 17.9661 12.0039 17.8663 12.5047C17.7665 13.0055 17.5206 13.4654 17.1595 13.8265C16.7985 14.1875 16.3385 14.4335 15.8377 14.5332C15.337 14.633 14.8179 14.5821 14.346 14.387C13.8741 14.1918 13.4707 13.8612 13.1866 13.4369C12.9026 13.0126 12.7507 12.5136 12.7501 12.003V11.997ZM8.66708 16.083C8.15625 16.083 7.6569 16.2345 7.23215 16.5183C6.8074 16.802 6.47633 17.2054 6.2808 17.6773C6.08527 18.1492 6.03406 18.6685 6.13364 19.1696C6.23322 19.6706 6.47913 20.1308 6.84027 20.4921C7.20141 20.8534 7.66156 21.0995 8.16255 21.1993C8.66354 21.299 9.18286 21.248 9.65486 21.0527C10.1269 20.8573 10.5303 20.5264 10.8143 20.1018C11.0982 19.6771 11.2499 19.1779 11.2501 18.667V16.083H8.66708Z" fill="black"/>
</svg>
