<svg width="64" height="35" viewBox="0 0 64 35" fill="none" xmlns="http://www.w3.org/2000/svg">
<path d="M0.732458 0.732455C0.500244 0.964607 0.316038 1.24023 0.190362 1.54359C0.0646851 1.84694 0 2.17208 0 2.50043C0 2.82879 0.0646851 3.15393 0.190362 3.45728C0.316038 3.76064 0.500244 4.03626 0.732458 4.26841L30.2321 33.768C30.4642 34.0003 30.7399 34.1845 31.0432 34.3101C31.3466 34.4358 31.6717 34.5005 32.0001 34.5005C32.3284 34.5005 32.6536 34.4358 32.9569 34.3101C33.2603 34.1845 33.5359 34.0003 33.768 33.768L63.2677 4.26841C63.4999 4.03624 63.684 3.76061 63.8097 3.45726C63.9353 3.15391 64 2.82878 64 2.50043C64 2.17209 63.9353 1.84696 63.8097 1.54361C63.684 1.24026 63.4999 0.964629 63.2677 0.732455C63.0355 0.500281 62.7599 0.316112 62.4565 0.19046C62.1532 0.064808 61.828 0.00013542 61.4997 0.00013542C61.1714 0.00013542 60.8462 0.064808 60.5429 0.19046C60.2395 0.316112 59.9639 0.500281 59.7317 0.732455L32.0001 28.4641L4.26841 0.732455C4.03626 0.500241 3.76064 0.316037 3.45728 0.190361C3.15393 0.0646841 2.82879 0 2.50044 0C2.17208 0 1.84694 0.0646841 1.54359 0.190361C1.24023 0.316037 0.96461 0.500241 0.732458 0.732455Z" fill="black"/>
</svg>
