<svg width="24" height="24" viewBox="0 0 24 24" fill="none" xmlns="http://www.w3.org/2000/svg">
<path d="M3.04125 5.4119V5.37065C3.04125 4.71743 3.31049 4.1272 3.74397 3.70497L3.74472 3.70422C3.95735 3.48162 4.21295 3.3045 4.49604 3.18358C4.77913 3.06266 5.08382 3.00046 5.39165 3.00075H5.4134L5.46065 3C6.05237 3 6.59235 3.22124 7.00183 3.58498L6.99958 3.58273C7.42521 3.94636 7.71475 4.44374 7.8208 4.99342L7.82305 5.00917C8.09154 4.94092 8.40053 4.90192 8.71851 4.90192C9.116 4.90192 9.49923 4.96267 9.85922 5.07666L9.83222 5.06916C10.5604 5.3024 11.1822 5.69689 11.6786 6.21212L11.6801 6.21362L9.91246 7.98129C9.59955 7.64635 9.16942 7.44513 8.71176 7.41957H8.68776C8.29028 7.41957 7.93255 7.58981 7.68356 7.86055L7.68281 7.8613C7.42332 8.12529 7.26282 8.48752 7.26282 8.88725V8.9075V8.92925C7.26282 9.32449 7.41582 9.68447 7.66556 9.95221L7.66481 9.95146L11.6846 13.9713L9.91321 15.7375L5.89338 11.7176C5.3712 11.228 5.0087 10.5924 4.85317 9.89371L4.84867 9.87046C4.68496 9.15773 4.7012 8.41545 4.89592 7.71055L4.88842 7.7413C4.36273 7.63876 3.89256 7.3478 3.56623 6.92309L3.56248 6.91784C3.22472 6.49815 3.04102 5.97537 3.042 5.43665L3.04125 5.4119ZM8.22053 10.0737L8.82051 9.51123L12.2404 6.09512C12.7262 5.575 13.3525 5.20691 14.0433 5.03542L14.0688 5.03017C14.4011 4.94534 14.7428 4.903 15.0857 4.90417C15.4742 4.90417 15.8507 4.95742 16.2077 5.05716L16.1785 5.05041C16.2595 4.48803 16.5437 3.97478 16.9772 3.60747L16.9809 3.60447C17.4285 3.20516 18.011 2.99071 18.6106 3.0045H18.6084H18.6196C19.2631 3.0045 19.8443 3.27449 20.2553 3.70647L20.256 3.70722C20.6903 4.1302 20.9595 4.72043 20.9595 5.37365L20.9588 5.41715V5.4149L20.9595 5.4599C20.9603 6.03173 20.7456 6.58286 20.358 7.00333L20.3595 7.00183C19.9749 7.43269 19.4567 7.72189 18.8881 7.82305L18.8723 7.8253C19.0885 8.51207 19.1002 9.24689 18.9061 9.94021L18.9121 9.91396C18.6959 10.6576 18.2953 11.3346 17.7474 11.8819L15.9392 10.0722C16.2849 9.79322 16.5114 9.37923 16.5392 8.91125V8.8955C16.5392 8.48902 16.3697 8.12304 16.0975 7.8628L16.0967 7.86205C15.9635 7.72196 15.8032 7.61048 15.6255 7.5344C15.4479 7.45832 15.2565 7.41925 15.0632 7.41957H15.0512H15.0407C14.6343 7.41957 14.2683 7.58906 14.008 7.8613L14.0073 7.86205L9.98746 11.8819L8.22053 10.0737ZM18.9098 16.2189C19.4838 16.291 20.0121 16.5686 20.397 17.0004L20.3993 17.0027C20.7713 17.4069 21 17.9491 21 18.5446L20.9993 18.5948V18.5926V18.6338C20.9997 18.9444 20.9377 19.2519 20.817 19.538C20.6963 19.8242 20.5193 20.0831 20.2965 20.2995L20.2958 20.3003C20.0793 20.5232 19.8203 20.7004 19.534 20.8212C19.2477 20.942 18.9401 21.0041 18.6293 21.0037L18.5859 21.003H18.5881H18.5754C18.0214 21.0037 17.4845 20.8118 17.0567 20.46L17.0612 20.463C16.6208 20.1232 16.3212 19.633 16.2197 19.0861L16.2174 19.0718C15.843 19.1869 15.4534 19.2448 15.0617 19.2436C14.701 19.2436 14.3523 19.1956 14.02 19.1056L14.0478 19.1123C13.3039 18.927 12.6331 18.5219 12.1226 17.9499L12.1196 17.9461L13.8873 16.1387C14.1663 16.4844 14.5803 16.7109 15.0482 16.7387H15.064C15.4705 16.7387 15.8365 16.5692 16.0967 16.2969L16.0975 16.2962C16.3704 16.036 16.5399 15.6692 16.5399 15.2627V15.2455C16.5399 14.839 16.3704 14.473 16.0982 14.2128L16.0975 14.212L12.0776 10.1922L13.885 8.42452L17.8621 12.4444C18.3531 12.9246 18.7115 13.5238 18.9023 14.1835L18.9091 14.212C18.9983 14.5128 19.0493 14.8578 19.0493 15.2155C19.0493 15.5732 18.9983 15.9182 18.9023 16.2444L18.9098 16.2189ZM15.535 14.0928L11.5571 18.0669C11.0709 18.5599 10.4645 18.9177 9.79772 19.1048L9.76997 19.1116C9.46623 19.2008 9.11675 19.2526 8.75526 19.2526C8.39378 19.2526 8.04504 19.2016 7.7143 19.1056L7.74055 19.1123C7.6459 19.6522 7.35435 20.1377 6.92234 20.475L6.91709 20.4788C6.4969 20.818 5.97292 21.0025 5.4329 21.0015H5.40965H5.41115H5.3699C5.05934 21.002 4.75185 20.94 4.46571 20.8193C4.17957 20.6985 3.92061 20.5215 3.70422 20.2988L3.70347 20.298C3.48055 20.0816 3.3034 19.8225 3.18255 19.5362C3.06171 19.25 2.99963 18.9423 3 18.6316V18.5686C3 18.0046 3.19724 17.4864 3.52648 17.0799L3.52273 17.0844C3.84549 16.6606 4.31147 16.3687 4.83368 16.2632L4.84792 16.2609C4.6843 15.5689 4.70083 14.8464 4.89592 14.1625L4.88842 14.1918C5.103 13.4656 5.50404 12.8083 6.05162 12.2854L6.05312 12.2839L7.8208 14.095C7.49456 14.3823 7.28307 14.7925 7.25907 15.253V15.2755C7.25907 15.6752 7.41957 16.0375 7.67906 16.3014C7.93255 16.5737 8.29403 16.7439 8.69451 16.7439H8.72526H8.72376L8.76051 16.7447C8.94688 16.7449 9.13119 16.7056 9.3013 16.6295C9.47141 16.5534 9.62347 16.4421 9.74747 16.3029L9.74897 16.3014L13.7688 12.2816L15.535 14.0928Z" fill="black"/>
</svg>
