<svg width="24" height="24" viewBox="0 0 24 24" fill="none" xmlns="http://www.w3.org/2000/svg">
<path d="M11.8109 2.00001C8.08091 1.98751 0.905198 10.5382 3.58599 12.8032L4.24431 13.3607C4.06724 13.8372 4.00444 14.3487 4.06098 14.854C4.13098 15.554 4.49264 16.224 5.07763 16.7423C5.63262 17.2339 6.36261 17.5456 7.07093 17.5456C8.24258 20.2456 10.9209 21.9022 14.0592 21.9955C17.4258 22.0955 20.2532 20.5155 21.4374 17.6773C21.5149 17.4773 21.844 16.5806 21.844 15.7881C21.844 14.9915 21.394 14.6615 21.1065 14.6615C21.0982 14.6306 21.0415 14.4231 20.9632 14.1732C20.8849 13.9232 20.8049 13.7482 20.8049 13.7482C21.1174 13.279 21.1232 12.8607 21.0815 12.6232C21.0374 12.329 20.9149 12.079 20.6682 11.8199C20.4215 11.5607 19.9166 11.2949 19.2074 11.0965L18.8357 10.9932C18.8341 10.9774 18.8157 10.1157 18.7999 9.74572C18.7882 9.47906 18.7649 9.06073 18.6357 8.64991C18.4807 8.09325 18.2124 7.60576 17.8766 7.29409C18.8032 6.33411 19.3816 5.27579 19.3799 4.36831C19.3774 2.6225 17.2333 2.09418 14.5916 3.18833L14.0317 3.42582L13.005 2.42001C12.675 2.13251 12.2692 2.00168 11.8109 2.00001ZM11.8717 2.7275C12.0106 2.7275 12.1397 2.74361 12.2592 2.77583C12.5067 2.84583 13.3258 3.79582 13.3258 3.79582C13.3258 3.79582 11.8042 4.63997 10.3925 5.81745C8.49257 7.28159 7.0551 9.40989 6.19511 11.719C5.51929 11.8507 4.92347 12.234 4.55931 12.7632C4.34181 12.5815 3.93598 12.2298 3.86432 12.0932C3.28266 10.9882 4.49847 8.84157 5.34846 7.62909C7.28343 4.86663 10.23 2.7225 11.8717 2.7275ZM14.61 5.45496C14.6433 5.45329 14.66 5.49662 14.6333 5.51662C14.5141 5.60829 14.3841 5.73329 14.2891 5.86162C14.2855 5.86651 14.2832 5.87233 14.2826 5.87842C14.282 5.88451 14.2831 5.89065 14.2858 5.89616C14.2885 5.90167 14.2926 5.90634 14.2978 5.90965C14.3029 5.91297 14.3089 5.9148 14.315 5.91495C14.8641 5.91828 15.6375 6.11078 16.1416 6.39328C16.1758 6.41244 16.1516 6.47911 16.1133 6.46994C15.3508 6.29494 14.1017 6.16245 12.805 6.47827C11.6467 6.7616 10.7634 7.19743 10.1184 7.66659C10.085 7.68992 10.0467 7.64742 10.0725 7.61659C10.8192 6.7541 11.7384 6.00412 12.5617 5.58329C12.59 5.56829 12.62 5.59912 12.605 5.62662C12.5392 5.74579 12.4133 5.99912 12.3733 6.19161C12.3675 6.22078 12.4 6.24411 12.425 6.22661C12.9375 5.87662 13.8283 5.50329 14.61 5.45496ZM17.1291 8.12575L17.1758 8.12658C17.3111 8.13208 17.4424 8.17412 17.5558 8.24825C18.0008 8.54407 18.0641 9.26156 18.0874 9.78572C18.0999 10.0857 18.1366 10.8099 18.1491 11.0174C18.1774 11.4932 18.3024 11.5599 18.5549 11.6432C18.6966 11.6907 18.8299 11.7249 19.0241 11.7799C19.6124 11.9449 19.9616 12.1132 20.1824 12.3282C20.3132 12.4632 20.374 12.6057 20.3932 12.7423C20.4624 13.249 19.9999 13.8757 18.7749 14.4431C17.4358 15.0648 15.8108 15.2223 14.6883 15.0973L14.2958 15.0531C13.3975 14.9323 12.885 16.0923 13.4242 16.8873C13.7717 17.3998 14.7175 17.7331 15.6641 17.7331C17.8341 17.7331 19.5016 16.8073 20.1224 16.0065C20.1403 15.9837 20.157 15.9601 20.1724 15.9356C20.2024 15.8898 20.1774 15.8648 20.1391 15.8906C19.6324 16.2373 17.3808 17.6148 14.9725 17.1998C14.9725 17.1998 14.68 17.1523 14.4125 17.0481C14.2 16.9648 13.7558 16.7614 13.7017 16.3056C15.6458 16.9056 16.8691 16.3381 16.8691 16.3381C16.8806 16.3332 16.8902 16.3247 16.8965 16.3139C16.9028 16.3031 16.9055 16.2905 16.9041 16.2781C16.9034 16.2708 16.9012 16.2636 16.8977 16.2571C16.8942 16.2506 16.8894 16.2449 16.8837 16.2402C16.878 16.2356 16.8714 16.2321 16.8643 16.23C16.8572 16.228 16.8498 16.2273 16.8424 16.2281C16.8424 16.2281 15.25 16.4639 13.7442 15.9131C13.9083 15.3798 14.3441 15.5731 15.0025 15.6256C16.0267 15.6871 17.0541 15.5761 18.0416 15.2973C18.7232 15.1023 19.6182 14.7165 20.3141 14.1673C20.5482 14.6823 20.6307 15.2498 20.6307 15.2498C20.6307 15.2498 20.8132 15.2165 20.964 15.3106C21.1082 15.399 21.2132 15.5823 21.1415 16.0565C20.9949 16.9423 20.6182 17.6614 19.9857 18.3231C19.5904 18.7508 19.1198 19.1022 18.5974 19.3597C18.3135 19.5097 18.0116 19.6375 17.6916 19.7431C15.3058 20.5222 12.8633 19.6656 12.0758 17.8264C12.0122 17.6857 11.9596 17.5403 11.9184 17.3914C11.5825 16.179 11.8684 14.7248 12.7583 13.809C12.8125 13.7507 12.8683 13.6815 12.8683 13.5957C12.8683 13.5232 12.8225 13.4465 12.7833 13.3932C12.4717 12.9407 11.3925 12.1715 11.6092 10.6815C11.765 9.61156 12.7008 8.8574 13.5733 8.9024L13.795 8.9149C14.1725 8.9374 14.5033 8.98573 14.8141 8.99823C15.335 9.02157 15.8033 8.94574 16.3583 8.48324C16.5458 8.32741 16.6958 8.19158 16.9499 8.14908C16.9733 8.14491 17.0266 8.12575 17.1291 8.12575ZM17.1474 9.94239C17.1307 9.94252 17.114 9.94391 17.0974 9.94655C16.8183 9.99155 16.8083 10.3365 16.9074 10.8132C16.9641 11.0799 17.0633 11.309 17.1741 11.4507C17.3208 11.4335 17.4591 11.4335 17.5891 11.4507C17.6633 11.2799 17.6758 10.9865 17.6091 10.6657C17.5158 10.2199 17.3916 9.93905 17.1474 9.94239ZM14.0975 11.2307C13.7936 11.2292 13.4971 11.3243 13.2508 11.5024C13.1175 11.5999 12.9917 11.7357 13.0092 11.8174C13.0158 11.844 13.035 11.864 13.0825 11.8699C13.1917 11.8824 13.5758 11.689 14.0175 11.6615C14.3291 11.6424 14.5875 11.7399 14.7866 11.8282C14.9858 11.9149 15.1083 11.9724 15.1558 11.9224C15.1866 11.8907 15.1775 11.8307 15.13 11.7524C15.0316 11.5924 14.83 11.4299 14.615 11.3382C14.4514 11.2682 14.2754 11.2316 14.0975 11.2307ZM17.4991 11.9057C17.3566 11.9032 17.2383 12.0607 17.2349 12.2557C17.2316 12.4523 17.3441 12.614 17.4874 12.6157C17.6308 12.6173 17.7491 12.4615 17.7524 12.2657C17.7558 12.069 17.6424 11.9082 17.4991 11.9057ZM14.5158 12.049C14.4741 12.049 14.4311 12.0512 14.3866 12.0557C14.1275 12.0974 13.9842 12.1823 13.8925 12.2615C13.8142 12.3298 13.7658 12.4057 13.7658 12.459C13.7657 12.4673 13.7672 12.4755 13.7703 12.4832C13.7734 12.4909 13.778 12.4979 13.7838 12.5037C13.7896 12.5096 13.7966 12.5143 13.8042 12.5175C13.8118 12.5207 13.82 12.5223 13.8283 12.5223C13.8867 12.5223 14.0183 12.4698 14.0183 12.4698C14.2844 12.3703 14.5716 12.3405 14.8525 12.3832C14.9833 12.3982 15.0441 12.4057 15.0733 12.3615C15.0816 12.3482 15.0916 12.3207 15.065 12.2782C15.0125 12.1923 14.8066 12.054 14.5158 12.049ZM16.3991 12.3823C16.2933 12.3823 16.2033 12.4248 16.1633 12.5057C16.1008 12.634 16.1924 12.8082 16.3683 12.894C16.5433 12.9807 16.7374 12.9465 16.8016 12.819C16.8641 12.6898 16.7724 12.5157 16.5966 12.4298C16.5353 12.3989 16.4678 12.3832 16.3991 12.3823ZM6.70344 12.4023C6.74344 12.4023 6.78483 12.4032 6.8276 12.4048C7.43593 12.4382 8.33258 12.9048 8.53757 14.2298C8.7184 15.4048 8.43091 16.5989 7.33009 16.7873C7.22732 16.8039 7.12343 16.8112 7.01843 16.8089C6.00178 16.7814 4.90263 15.8656 4.79347 14.7798C4.67264 13.5798 5.28596 12.6565 6.37178 12.4373C6.47011 12.4168 6.58066 12.4051 6.70344 12.4023ZM6.6451 13.1748C6.51282 13.1735 6.38171 13.1997 6.26016 13.252C6.13862 13.3042 6.02933 13.3812 5.93928 13.4782C5.62262 13.8265 5.57346 14.3015 5.63429 14.4698C5.65679 14.5306 5.69262 14.5481 5.71762 14.5515C5.77095 14.5581 5.85095 14.519 5.90095 14.3848L5.91512 14.3415C5.94559 14.2336 5.98955 14.13 6.04595 14.0332C6.12952 13.9057 6.2603 13.8166 6.40953 13.7855C6.55876 13.7544 6.71423 13.7838 6.84177 13.8673C7.06343 14.0123 7.14926 14.284 7.05426 14.5423C7.00593 14.6765 6.92593 14.9331 6.94343 15.1431C6.97927 15.569 7.24093 15.7406 7.47676 15.7581C7.70509 15.7665 7.86509 15.639 7.90592 15.5448C7.93008 15.489 7.91008 15.4556 7.89675 15.4406C7.86092 15.3965 7.80259 15.4098 7.74675 15.4231C7.70334 15.4352 7.65849 15.4414 7.61342 15.4415C7.5656 15.4426 7.51825 15.4319 7.47552 15.4104C7.4328 15.3889 7.39602 15.3572 7.36843 15.3181C7.30343 15.2181 7.30759 15.0681 7.37926 14.8981L7.41259 14.8215C7.52759 14.5648 7.71925 14.134 7.50426 13.724C7.34176 13.4157 7.07676 13.2223 6.75927 13.1823C6.72118 13.1769 6.68275 13.1741 6.64427 13.174L6.6451 13.1748Z" fill="black"/>
</svg>
