<svg width="24" height="24" viewBox="0 0 24 24" fill="none" xmlns="http://www.w3.org/2000/svg">
<path d="M5.70711 4.70711C5.51957 4.51957 5.26522 4.41421 5 4.41421C4.73478 4.41421 4.48043 4.51957 4.29289 4.70711C4.10536 4.89464 4 5.149 4 5.41421C4 5.67943 4.10536 5.93378 4.29289 6.12132L17.0208 18.8492C17.2084 19.0368 17.4627 19.1421 17.7279 19.1421C17.9931 19.1421 18.2475 19.0368 18.435 18.8492C18.6226 18.6617 18.7279 18.4074 18.7279 18.1421C18.7279 17.8769 18.6226 17.6226 18.435 17.435L5.70711 4.70711Z" fill="black"/>
<path d="M4.70711 18.7071C4.51957 18.5196 4.41421 18.2652 4.41421 18C4.41421 17.7348 4.51957 17.4804 4.70711 17.2929L17.435 4.56497C17.6226 4.37744 17.8769 4.27208 18.1421 4.27208C18.4074 4.27208 18.6617 4.37744 18.8492 4.56497C19.0368 4.75251 19.1421 5.00686 19.1421 5.27208C19.1421 5.53729 19.0368 5.79165 18.8492 5.97918L6.12132 18.7071C5.93378 18.8946 5.67943 19 5.41421 19C5.149 19 4.89464 18.8946 4.70711 18.7071Z" fill="black"/>
</svg>
