<svg width="24" height="24" viewBox="0 0 24 24" fill="none" xmlns="http://www.w3.org/2000/svg">
<path fill-rule="evenodd" clip-rule="evenodd" d="M7.575 18.25H6.5V18.2375V14.4875H8.0625C8.8625 14.4875 9.4875 15.0375 9.4875 15.8C9.4875 16.5625 8.8375 17.125 8.0625 17.125H7.575V18.25ZM7.575 15.3625V16.25H7.95C8.2125 16.25 8.4125 16.075 8.4125 15.8C8.4125 15.525 8.2 15.3625 7.95 15.3625H7.575ZM11.975 18.25H10.4875V14.5H11.975C13.225 14.5 14 15.2625 14 16.35C14 17.5125 13.225 18.25 11.975 18.25ZM11.5625 15.375V17.3625H11.925C12.3375 17.3625 12.9 17.1625 12.9 16.35C12.9 15.575 12.3375 15.375 11.925 15.375H11.5625Z" fill="black"/>
<path fill-rule="evenodd" clip-rule="evenodd" d="M14.9627 18.25H14.9502L14.9627 18.2625V18.25ZM14.9627 18.25H16.0252V16.9125H17.3502V16.05H16.0252V15.375H17.5377V14.5125H14.9627V18.25Z" fill="black"/>
<path d="M18.375 22H5.875C4.8375 22 4 21.1625 4 20.125V3.875C4 2.8375 4.8375 2 5.875 2H14.7375C15.2375 2 15.7125 2.2 16.0625 2.55L19.7 6.1875C20.05 6.5375 20.25 7.0125 20.25 7.5125V20.125C20.25 21.1625 19.4125 22 18.375 22ZM5.875 3.25C5.525 3.25 5.25 3.525 5.25 3.875V20.125C5.25 20.475 5.525 20.75 5.875 20.75H18.375C18.725 20.75 19 20.475 19 20.125V7.5125C19.001 7.43053 18.9848 7.34926 18.9525 7.27391C18.9202 7.19856 18.8725 7.13081 18.8125 7.075L15.175 3.4375C15.0596 3.31974 14.9024 3.25235 14.7375 3.25H5.875Z" fill="black" stroke="black" stroke-width="0.5"/>
<path d="M19.475 8.24999H15.8375C14.825 8.24999 14 7.42499 14 6.41249V2.77499C14 2.42499 14.275 2.14999 14.625 2.14999C14.975 2.14999 15.25 2.42499 15.25 2.77499V6.41249C15.25 6.73749 15.5125 6.99999 15.8375 6.99999H19.475C19.825 6.99999 20.1 7.27499 20.1 7.62499C20.1 7.97499 19.825 8.24999 19.475 8.24999Z" fill="black" stroke="black" stroke-width="0.5"/>
</svg>
