<svg width="24" height="24" viewBox="0 0 24 24" fill="none" xmlns="http://www.w3.org/2000/svg">
<path d="M12 6C5.83175 6 1 8.61708 1 11.9583C1 15.2996 5.83175 17.9167 12 17.9167C18.1683 17.9167 23 15.2996 23 11.9583C23 8.61708 18.1683 6 12 6ZM10.8578 7.83333H12.0587L11.6773 9.66667H12.7498C13.43 9.66667 13.8865 9.762 14.1468 9.99942C14.4008 10.2341 14.4778 10.6191 14.376 11.1434L13.8993 13.3333H12.6783L13.1174 11.3084C13.1706 11.0307 13.1495 10.8373 13.056 10.7355C12.9634 10.6338 12.759 10.5833 12.4528 10.5833H11.4912L10.911 13.3333H9.70833L10.8578 7.83333ZM5.58333 9.66667H8.02717C9.19225 9.66667 9.89808 10.4477 9.62217 11.6128C9.30133 12.9667 8.44333 13.3333 6.863 13.3333H6.10767L5.86842 14.7083H4.65383L5.58333 9.66667ZM15.2083 9.66667H17.6522C18.8173 9.66667 19.5231 10.4477 19.2472 11.6128C18.9263 12.9667 18.0674 13.3333 16.488 13.3333H15.7327L15.4934 14.7083H14.2788L15.2083 9.66667ZM6.62375 10.5833L6.27817 12.4167H7.06192C7.74025 12.4167 8.37092 12.3397 8.47633 11.3286C8.51575 10.9362 8.35258 10.5833 7.56883 10.5833H6.62375ZM16.2488 10.5833L15.9032 12.4167H16.6869C17.3653 12.4167 17.9959 12.3397 18.1013 11.3286C18.1408 10.9362 17.9785 10.5833 17.1938 10.5833H16.2488Z" fill="black"/>
</svg>
