<svg width="24" height="24" viewBox="0 0 24 24" fill="none" xmlns="http://www.w3.org/2000/svg">
<path d="M11.4 8.79999H6.6C5.71634 8.79999 5 9.51633 5 10.4V18.4C5 19.2836 5.71634 20 6.6 20H11.4C12.2837 20 13 19.2836 13 18.4V10.4C13 9.51633 12.2837 8.79999 11.4 8.79999Z" stroke="black" stroke-width="1.6" stroke-linecap="round" stroke-linejoin="round"/>
<path d="M6.59961 5.6C6.59961 5.17565 6.76818 4.76869 7.06824 4.46863C7.3683 4.16857 7.77526 4 8.19961 4H17.7996C18.224 4 18.6309 4.16857 18.931 4.46863C19.231 4.76869 19.3996 5.17565 19.3996 5.6V18.4C19.3996 18.8243 19.231 19.2313 18.931 19.5314C18.6309 19.8314 18.224 20 17.7996 20H15.8796M8.99961 16.8H9.00761" stroke="black" stroke-width="1.6" stroke-linecap="round" stroke-linejoin="round"/>
</svg>
