<svg width="24" height="24" viewBox="0 0 24 24" fill="none" xmlns="http://www.w3.org/2000/svg">
<path d="M17.0004 16.47V7.39002L11.0004 11.93M2.22038 9.19002C2.07566 9.03462 1.99354 8.83117 1.98985 8.61885C1.98616 8.40653 2.06115 8.20035 2.20038 8.04002L3.40038 6.93002C3.60038 6.75002 4.09038 6.67002 4.45038 6.93002L7.87038 9.54002L15.8004 2.29002C16.1204 1.97002 16.6704 1.84002 17.3004 2.17002L21.3004 4.08002C21.6604 4.29002 22.0004 4.62002 22.0004 5.23002V18.73C22.0004 19.13 21.7104 19.56 21.4004 19.73L17.0004 21.83C16.6804 21.96 16.0804 21.84 15.8704 21.63L7.85038 14.33L4.45038 16.93C4.07038 17.19 3.60038 17.12 3.40038 16.93L2.20038 15.83C1.88038 15.5 1.92038 14.96 2.25038 14.63L5.25038 11.93" fill="black"/>
</svg>
