<svg width="24" height="24" viewBox="0 0 24 24" fill="none" xmlns="http://www.w3.org/2000/svg">
<path d="M20.9252 8.54793L21.7021 7L21.9246 8.35367L21.1365 9.86172C19.6511 6.9777 16.8604 9.26695 17.4922 13.1802C15.8538 9.61574 18.7753 4.73934 20.9252 8.54793ZM16.5334 14.46C17.2564 15.8876 18.1939 16.6305 19.2696 16.6152C20.2007 16.6019 21.2027 15.8149 21.7995 14.6594L22 15.7049C20.3741 18.8381 17.4599 17.9079 16.5335 14.46M2 7.05898H3.37449L5.27266 13.513L6.55582 9.16707L5.92754 7.05898H7.30117L9.19957 13.5135L11.0977 7.05898H16.2441V7.70102L14.3063 11.0394C16.053 11.3993 17.285 14.508 15.6086 16.6817C14.3095 18.3912 11.7695 17.8461 11.0206 15.5035L12.0938 15.0584C12.5762 16.3946 13.8986 16.8385 14.555 15.7393C14.9854 15.2353 15.7212 11.8778 12.5262 12.1649V11.5366L14.3588 8.36832H12.0845L9.26516 17.8816L7.23555 11.0904L5.20645 17.8816L2 7.05898Z" fill="black"/>
</svg>
