<svg width="24" height="24" viewBox="0 0 24 24" fill="none" xmlns="http://www.w3.org/2000/svg">
<path fill-rule="evenodd" clip-rule="evenodd" d="M12 2C6.486 2 2 6.486 2 12C2 17.514 6.486 22 12 22C17.514 22 22 17.514 22 12C22 6.486 17.514 2 12 2ZM12 21.542C6.739 21.542 2.459 17.261 2.459 12C2.459 6.739 6.739 2.458 12 2.458C17.261 2.458 21.542 6.738 21.542 12C21.542 17.26 17.262 21.542 12 21.542ZM3.422 12C3.4218 13.611 3.87518 15.1894 4.73026 16.5547C5.58533 17.92 6.80755 19.017 8.257 19.72L4.164 8.51C3.67384 9.60816 3.42099 10.7974 3.422 12ZM17.792 11.568C17.792 10.508 17.41 9.774 17.084 9.202C16.649 8.495 16.241 7.897 16.241 7.19C16.241 6.402 16.839 5.668 17.681 5.668C17.72 5.668 17.756 5.672 17.793 5.675C16.2135 4.22286 14.1456 3.4179 12 3.42C10.5782 3.41929 9.17854 3.77238 7.92721 4.44745C6.67587 5.12252 5.61218 6.09836 4.832 7.287C5.034 7.293 5.224 7.297 5.385 7.297C6.282 7.297 7.671 7.188 7.671 7.188C8.133 7.161 8.188 7.84 7.726 7.895C7.726 7.895 7.261 7.95 6.744 7.977L9.868 17.269L11.745 11.639L10.409 7.977C9.947 7.95 9.509 7.895 9.509 7.895C9.047 7.868 9.101 7.161 9.564 7.188C9.564 7.188 10.98 7.298 11.823 7.298C12.72 7.298 14.109 7.188 14.109 7.188C14.572 7.161 14.626 7.84 14.164 7.895C14.164 7.895 13.699 7.95 13.182 7.977L16.282 17.198L17.139 14.339C17.509 13.152 17.791 12.3 17.791 11.566M12.151 12.749L9.577 20.229C11.305 20.7387 13.1498 20.6908 14.849 20.092C14.825 20.0542 14.8043 20.0144 14.787 19.973L12.151 12.749ZM19.528 7.883C19.565 8.157 19.586 8.45 19.586 8.765C19.586 9.635 19.423 10.614 18.933 11.838L16.313 19.414C17.6107 18.6597 18.6876 17.5779 19.436 16.2768C20.1845 14.9757 20.5783 13.501 20.578 12C20.5804 10.5614 20.2192 9.14462 19.528 7.883Z" fill="black"/>
</svg>
