<svg width="25" height="24" viewBox="0 0 25 24" fill="none" xmlns="http://www.w3.org/2000/svg">
<path d="M22.0833 13.3767H17.3467L20.03 10.495C20.2473 10.2764 20.3693 9.98072 20.3693 9.6725C20.3693 9.36428 20.2473 9.06859 20.03 8.85L15.1417 4.34667C15.0325 4.24092 14.9024 4.15927 14.7597 4.10702C14.617 4.05477 14.4649 4.03307 14.3133 4.04333C14.1601 4.04702 14.0091 4.08086 13.869 4.14292C13.7289 4.20498 13.6024 4.29403 13.4967 4.405L11.3733 6.73833V2.66667C11.3733 2.35725 11.2504 2.0605 11.0316 1.84171C10.8128 1.62292 10.5161 1.5 10.2067 1.5H3.41667C3.10725 1.5 2.8105 1.62292 2.59171 1.84171C2.37292 2.0605 2.25 2.35725 2.25 2.66667V17.9383C2.25 19.1482 2.7306 20.3084 3.58608 21.1639C4.44156 22.0194 5.60184 22.5 6.81167 22.5H22.0833C22.3928 22.5 22.6895 22.3771 22.9083 22.1583C23.1271 21.9395 23.25 21.6428 23.25 21.3333V14.5433C23.25 14.2339 23.1271 13.9372 22.9083 13.7184C22.6895 13.4996 22.3928 13.3767 22.0833 13.3767ZM14.4067 6.855L17.5217 9.76L11.3733 16.3633V10.11L14.4067 6.855ZM9.04 9.66667V13.1667H4.58333V9.66667H9.04ZM9.04 3.83333V7.33333H4.58333V3.83333H9.04ZM4.58333 17.9383V15.5H9.04V17.9383C9.04 18.5293 8.80523 19.0961 8.38734 19.514C7.96944 19.9319 7.40266 20.1667 6.81167 20.1667C6.22068 20.1667 5.65389 19.9319 5.236 19.514C4.8181 19.0961 4.58333 18.5293 4.58333 17.9383ZM20.9167 20.1667H11.0117L15.165 15.71H20.9167V20.1667Z" fill="black"/>
</svg>
