<svg width="16" height="16" viewBox="0 0 16 16" fill="none" xmlns="http://www.w3.org/2000/svg">
<path d="M14.2222 8.91778H11.0644L12.8533 6.99667C12.9982 6.85094 13.0795 6.65381 13.0795 6.44833C13.0795 6.24286 12.9982 6.04573 12.8533 5.9L9.59444 2.89778C9.52169 2.82728 9.43494 2.77285 9.33981 2.73801C9.24468 2.70318 9.1433 2.68871 9.04222 2.69556C8.94008 2.69802 8.83943 2.72058 8.74601 2.76195C8.6526 2.80332 8.56824 2.86269 8.49778 2.93667L7.08222 4.49222V1.77778C7.08222 1.5715 7.00028 1.37367 6.85442 1.22781C6.70856 1.08194 6.51072 1 6.30444 1H1.77778C1.5715 1 1.37367 1.08194 1.22781 1.22781C1.08194 1.37367 1 1.5715 1 1.77778V11.9589C1 12.7654 1.3204 13.539 1.89072 14.1093C2.46104 14.6796 3.23456 15 4.04111 15H14.2222C14.4285 15 14.6263 14.9181 14.7722 14.7722C14.9181 14.6263 15 14.4285 15 14.2222V9.69556C15 9.48928 14.9181 9.29145 14.7722 9.14558C14.6263 8.99972 14.4285 8.91778 14.2222 8.91778ZM9.10444 4.57L11.1811 6.50667L7.08222 10.9089V6.74L9.10444 4.57ZM5.52667 6.44444V8.77778H2.55556V6.44444H5.52667ZM5.52667 2.55556V4.88889H2.55556V2.55556H5.52667ZM2.55556 11.9589V10.3333H5.52667V11.9589C5.52667 12.3529 5.37015 12.7307 5.09156 13.0093C4.81296 13.2879 4.4351 13.4444 4.04111 13.4444C3.64712 13.4444 3.26926 13.2879 2.99066 13.0093C2.71207 12.7307 2.55556 12.3529 2.55556 11.9589ZM13.4444 13.4444H6.84111L9.61 10.4733H13.4444V13.4444Z" fill="black"/>
</svg>
