<svg width="24" height="24" viewBox="0 0 24 24" fill="none" xmlns="http://www.w3.org/2000/svg">
<path d="M11.0689 16.8545C11.1653 16.9506 11.2419 17.0647 11.2941 17.1905C11.3463 17.3162 11.3731 17.451 11.3731 17.5871C11.3731 17.7232 11.3463 17.858 11.2941 17.9837C11.2419 18.1094 11.1653 18.2236 11.0689 18.3197L10.6276 18.761C10.1592 19.2312 9.60216 19.6039 8.98879 19.8574C8.37541 20.111 7.71786 20.2405 7.05414 20.2383C6.05461 20.2387 5.07745 19.9425 4.24627 19.3873C3.41508 18.8322 2.76724 18.043 2.38469 17.1195C2.00215 16.1961 1.90209 15.18 2.09717 14.1997C2.29226 13.2194 2.77373 12.3189 3.48066 11.6123L6.4758 8.61719C7.11287 7.98022 7.90861 7.5251 8.78065 7.29894C9.65268 7.07279 10.5693 7.08383 11.4357 7.33092C12.302 7.578 13.0865 8.05215 13.7081 8.70428C14.3296 9.35641 14.7656 10.1628 14.9708 11.04C15.0048 11.1734 15.0118 11.3122 14.9915 11.4483C14.9711 11.5845 14.9238 11.7152 14.8523 11.8328C14.7808 11.9504 14.6865 12.0525 14.575 12.1332C14.4635 12.2139 14.3371 12.2716 14.203 12.3028C14.069 12.334 13.93 12.3381 13.7944 12.3149C13.6587 12.2918 13.529 12.2417 13.4129 12.1678C13.2968 12.0939 13.1967 11.9975 13.1183 11.8844C13.0399 11.7712 12.9849 11.6436 12.9565 11.5089C12.8347 10.9911 12.5769 10.5152 12.2096 10.1304C11.8423 9.74566 11.3789 9.46597 10.8673 9.32028C10.3557 9.17458 9.81446 9.16818 9.29956 9.30171C8.78466 9.43525 8.31477 9.70389 7.93846 10.0799L4.94332 13.075C4.52582 13.4922 4.24141 14.0238 4.12605 14.6026C4.01069 15.1814 4.06956 15.7814 4.29523 16.3268C4.5209 16.8721 4.90322 17.3383 5.39385 17.6663C5.88447 17.9944 6.46136 18.1696 7.05156 18.1697C7.4437 18.1708 7.83218 18.0942 8.1945 17.9442C8.55682 17.7941 8.88579 17.5738 9.16238 17.2958L9.60281 16.8545C9.69892 16.7579 9.81315 16.6813 9.93895 16.629C10.0647 16.5767 10.1996 16.5498 10.3359 16.5498C10.4721 16.5498 10.607 16.5767 10.7328 16.629C10.8586 16.6813 10.9728 16.7579 11.0689 16.8545ZM20.5198 4.48002C19.5718 3.53236 18.2863 3 16.9459 3C15.6055 3 14.3199 3.53236 13.3719 4.48002L12.9315 4.92046C12.7372 5.11476 12.628 5.37829 12.628 5.65308C12.628 5.92787 12.7372 6.1914 12.9315 6.3857C13.1258 6.58001 13.3893 6.68917 13.6641 6.68917C13.9389 6.68917 14.2025 6.58001 14.3968 6.3857L14.8381 5.94441C15.3981 5.38435 16.1577 5.06972 16.9497 5.06972C17.7418 5.06972 18.5014 5.38435 19.0614 5.94441C19.6215 6.50446 19.9361 7.26405 19.9361 8.05609C19.9361 8.84812 19.6215 9.60771 19.0614 10.1678L16.0611 13.1586C15.7846 13.4367 15.4556 13.6571 15.0933 13.8071C14.731 13.9571 14.3425 14.0338 13.9503 14.0326C13.2776 14.0321 12.6247 13.8044 12.0977 13.3863C11.5706 12.9683 11.2002 12.3845 11.0465 11.7295C10.9843 11.4623 10.8186 11.2307 10.5856 11.0858C10.3527 10.9408 10.0717 10.8942 9.8045 10.9564C9.53727 11.0186 9.30569 11.1844 9.1607 11.4173C9.01571 11.6502 8.96919 11.9312 9.03137 12.1984C9.29089 13.3076 9.9175 14.2966 10.8096 15.005C11.7016 15.7134 12.8069 16.0996 13.946 16.1012H13.9503C14.6143 16.103 15.2721 15.9731 15.8856 15.7191C16.4992 15.4651 17.0562 15.0919 17.5246 14.6213L20.5198 11.6261C20.9891 11.1569 21.3613 10.5999 21.6153 9.98683C21.8693 9.37376 22 8.71667 22 8.05307C22 7.38947 21.8693 6.73238 21.6153 6.11931C21.3613 5.50624 20.9891 4.9492 20.5198 4.48002Z" fill="black"/>
</svg>
