<svg width="25" height="24" viewBox="0 0 25 24" fill="none" xmlns="http://www.w3.org/2000/svg">
<path d="M10.3524 1.82962C10.2014 1.67842 10.0104 1.57341 9.80188 1.52692C9.59332 1.48042 9.37582 1.49437 9.17491 1.56712C7.51348 2.16902 6.03081 3.18043 4.86419 4.50769C3.69758 5.83495 2.88475 7.43514 2.50099 9.16006C2.11723 10.885 2.17495 12.6788 2.6688 14.3755C3.16265 16.0722 4.07666 17.6168 5.32618 18.8663C6.5757 20.1159 8.12033 21.0299 9.81701 21.5237C11.5137 22.0176 13.3076 22.0753 15.0325 21.6915C16.7574 21.3078 18.3576 20.4949 19.6848 19.3283C21.0121 18.1617 22.0235 16.679 22.6254 15.0176C22.6981 14.8165 22.7119 14.5989 22.6654 14.3902C22.6188 14.1815 22.5137 13.9904 22.3625 13.8393C22.2112 13.6882 22.02 13.5833 21.8113 13.537C21.6025 13.4906 21.3849 13.5047 21.1839 13.5776C19.709 14.1127 18.1121 14.2161 16.5805 13.8757C15.0489 13.5354 13.6461 12.7653 12.5367 11.6559C11.4272 10.5464 10.6572 9.14364 10.3168 7.61204C9.9764 6.08044 10.0798 4.48353 10.6149 3.00862C10.6878 2.80748 10.7018 2.58973 10.6553 2.3809C10.6088 2.17208 10.5037 1.98084 10.3524 1.82962ZM7.92841 4.74712C7.76918 6.29878 7.95766 7.86642 8.48014 9.33612C9.00262 10.8058 9.84599 12.1406 10.9489 13.2436C12.0519 14.3465 13.3867 15.1899 14.8564 15.7124C16.3261 16.2349 17.8937 16.4233 19.4454 16.2641C18.7459 17.2318 17.8447 18.0362 16.804 18.6215C15.7633 19.2069 14.6079 19.5593 13.4176 19.6545C12.2274 19.7496 11.0306 19.5852 9.91014 19.1726C8.78964 18.76 7.77207 18.1091 6.92775 17.2648C6.08343 16.4205 5.43249 15.4029 5.0199 14.2824C4.60731 13.1619 4.44291 11.9652 4.53805 10.7749C4.6332 9.58467 4.98563 8.42926 5.57099 7.38854C6.15635 6.34782 6.96068 5.44659 7.92841 4.74712Z" fill="black"/>
</svg>
