<svg width="16" height="16" viewBox="0 0 16 16" fill="none" xmlns="http://www.w3.org/2000/svg">
<path d="M9.22665 1.21975C9.32731 1.11895 9.45463 1.04894 9.59367 1.01795C9.73271 0.986949 9.87771 0.996247 10.0117 1.04475C11.1193 1.44601 12.1077 2.12029 12.8855 3.00513C13.6632 3.88997 14.2051 4.95676 14.4609 6.1067C14.7168 7.25665 14.6783 8.45256 14.3491 9.58368C14.0198 10.7148 13.4105 11.7446 12.5775 12.5776C11.7445 13.4106 10.7147 14.0199 9.58358 14.3492C8.45246 14.6784 7.25655 14.7169 6.10661 14.461C4.95666 14.2052 3.88987 13.6633 3.00503 12.8856C2.12019 12.1078 1.44591 11.1194 1.04465 10.0117C0.996202 9.87769 0.986959 9.7326 1.01801 9.59348C1.04905 9.45436 1.1191 9.32696 1.21995 9.22622C1.32079 9.12548 1.44826 9.05557 1.58741 9.02467C1.72657 8.99376 1.87164 9.00316 2.00565 9.05175C2.98892 9.40847 4.05353 9.47742 5.0746 9.25049C6.09567 9.02357 7.03086 8.51019 7.77048 7.77057C8.5101 7.03095 9.02348 6.09576 9.2504 5.07469C9.47732 4.05362 9.40838 2.98902 9.05165 2.00575C9.00307 1.87165 8.99372 1.72649 9.02472 1.58727C9.05572 1.44805 9.12576 1.32056 9.22665 1.21975ZM10.8427 3.16475C10.9488 4.19919 10.8232 5.24428 10.4748 6.22408C10.1265 7.20388 9.56427 8.09376 8.82897 8.82906C8.09367 9.56436 7.20378 10.1266 6.22398 10.4749C5.24418 10.8232 4.19909 10.9489 3.16465 10.8427C3.63096 11.4879 4.23178 12.0241 4.9256 12.4144C5.61941 12.8046 6.38968 13.0395 7.18318 13.103C7.97668 13.1664 8.7745 13.0568 9.5215 12.7818C10.2685 12.5067 10.9469 12.0727 11.5098 11.5098C12.0726 10.947 12.5066 10.2686 12.7817 9.52159C13.0567 8.77459 13.1663 7.97678 13.1029 7.18328C13.0395 6.38978 12.8045 5.61951 12.4143 4.92569C12.024 4.23188 11.4878 3.63106 10.8427 3.16475Z" fill="black"/>
</svg>
