<svg width="24" height="24" viewBox="0 0 24 24" fill="none" xmlns="http://www.w3.org/2000/svg">
<g clip-path="url(#clip0_127_2)">
<path fill-rule="evenodd" clip-rule="evenodd" d="M10.4265 3.13703C10.6073 3.10503 10.7935 3.12296 10.9649 3.18887C11.1363 3.25478 11.2865 3.36619 11.3994 3.51111C11.5122 3.65603 11.5834 3.82897 11.6052 4.01132C11.6271 4.19367 11.5988 4.37854 11.5235 4.54603C11.0252 5.65592 10.8761 6.89106 11.096 8.08763C11.3159 9.28419 11.8943 10.3857 12.7546 11.2459C13.6148 12.1062 14.7163 12.6846 15.9129 12.9045C17.1094 13.1244 18.3446 12.9753 19.4545 12.477C19.6219 12.4017 19.8068 12.3734 19.9892 12.3953C20.1715 12.4171 20.3445 12.4883 20.4894 12.6011C20.6343 12.714 20.7457 12.8642 20.8116 13.0356C20.8775 13.207 20.8955 13.3932 20.8635 13.574C20.4721 15.7916 19.2635 17.7819 17.4765 19.152C15.6894 20.5222 13.4537 21.1726 11.2105 20.975C8.96731 20.7773 6.87974 19.7459 5.35981 18.0844C3.83988 16.4228 2.99804 14.2519 3.00046 12C3.00046 7.56603 6.20646 3.88203 10.4265 3.13703ZM9.11946 5.61803C7.66125 6.27744 6.47292 7.41648 5.75237 8.84548C5.03182 10.2745 4.82254 11.9072 5.15936 13.4717C5.49619 15.0363 6.3588 16.4382 7.60356 17.4441C8.84831 18.45 10.4001 18.9991 12.0005 19C13.3479 19.0001 14.6667 18.6115 15.7987 17.8807C16.9307 17.1499 17.8279 16.108 18.3825 14.88C17.1167 15.1023 15.816 15.0163 14.5905 14.6294C13.365 14.2426 12.2508 13.5661 11.3421 12.6574C10.4333 11.7487 9.75692 10.6344 9.37004 9.40895C8.98316 8.18345 8.89721 6.88378 9.11946 5.61803Z" fill="black"/>
</g>
<defs>
<clipPath id="clip0_127_2">
<rect width="24" height="24" fill="white" transform="matrix(-1 0 0 1 24 0)"/>
</clipPath>
</defs>
</svg>
