<svg width="25" height="24" viewBox="0 0 25 24" fill="none" xmlns="http://www.w3.org/2000/svg">
<g clip-path="url(#clip0_102_26)">
<path d="M12.75 18C11.1587 18 9.63258 17.3679 8.50736 16.2426C7.38214 15.1174 6.75 13.5913 6.75 12C6.75 10.4087 7.38214 8.88258 8.50736 7.75736C9.63258 6.63214 11.1587 6 12.75 6C14.3413 6 15.8674 6.63214 16.9926 7.75736C18.1179 8.88258 18.75 10.4087 18.75 12C18.75 13.5913 18.1179 15.1174 16.9926 16.2426C15.8674 17.3679 14.3413 18 12.75 18ZM12.75 15.75C13.7446 15.75 14.6984 15.3549 15.4017 14.6517C16.1049 13.9484 16.5 12.9946 16.5 12C16.5 11.0054 16.1049 10.0516 15.4017 9.34835C14.6984 8.64509 13.7446 8.25 12.75 8.25C11.7554 8.25 10.8016 8.64509 10.0983 9.34835C9.39509 10.0516 9 11.0054 9 12C9 12.9946 9.39509 13.9484 10.0983 14.6517C10.8016 15.3549 11.7554 15.75 12.75 15.75ZM21.2355 3.5145C21.34 3.61898 21.423 3.74303 21.4796 3.87956C21.5361 4.0161 21.5653 4.16245 21.5653 4.31025C21.5653 4.45805 21.5361 4.6044 21.4796 4.74094C21.423 4.87747 21.34 5.00152 21.2355 5.106L19.644 6.696C19.5065 6.84409 19.3316 6.95234 19.1377 7.00937C18.9438 7.06639 18.7382 7.07006 18.5424 7.02C18.3466 6.96994 18.1679 6.868 18.0252 6.72492C17.8825 6.58184 17.7811 6.40292 17.7315 6.207C17.6814 6.01144 17.6849 5.80598 17.7416 5.61223C17.7984 5.41849 17.9063 5.24361 18.054 5.106L19.644 3.516C19.8549 3.30532 20.1409 3.18699 20.439 3.18699C20.7371 3.18699 21.0231 3.30532 21.234 3.516L21.2355 3.5145ZM7.446 17.304C7.65668 17.5149 7.77501 17.8009 7.77501 18.099C7.77501 18.3971 7.65668 18.6831 7.446 18.894L5.856 20.4855C5.75227 20.593 5.62818 20.6788 5.49095 20.7378C5.35372 20.7968 5.20612 20.8279 5.05674 20.8293C4.90736 20.8306 4.75921 20.8023 4.62093 20.7458C4.48264 20.6893 4.357 20.6058 4.25132 20.5002C4.14564 20.3946 4.06205 20.269 4.00541 20.1308C3.94878 19.9926 3.92025 19.8445 3.92148 19.6951C3.9227 19.5457 3.95367 19.3981 4.01256 19.2608C4.07146 19.1235 4.1571 18.9993 4.2645 18.8955L5.8545 17.304C5.95898 17.1995 6.08303 17.1165 6.21956 17.0599C6.3561 17.0034 6.50245 16.9742 6.65025 16.9742C6.79805 16.9742 6.9444 17.0034 7.08094 17.0599C7.21747 17.1165 7.34153 17.1995 7.446 17.304ZM12.75 0C13.0484 0 13.3345 0.118526 13.5455 0.329505C13.7565 0.540483 13.875 0.826631 13.875 1.125V3.375C13.875 3.67337 13.7565 3.95952 13.5455 4.1705C13.3345 4.38147 13.0484 4.5 12.75 4.5C12.4516 4.5 12.1655 4.38147 11.9545 4.1705C11.7435 3.95952 11.625 3.67337 11.625 3.375V1.125C11.625 0.826631 11.7435 0.540483 11.9545 0.329505C12.1655 0.118526 12.4516 0 12.75 0ZM5.25 12C5.25 12.2984 5.13147 12.5845 4.9205 12.7955C4.70952 13.0065 4.42337 13.125 4.125 13.125H1.875C1.57663 13.125 1.29048 13.0065 1.0795 12.7955C0.868526 12.5845 0.75 12.2984 0.75 12C0.75 11.7016 0.868526 11.4155 1.0795 11.2045C1.29048 10.9935 1.57663 10.875 1.875 10.875H4.125C4.42337 10.875 4.70952 10.9935 4.9205 11.2045C5.13147 11.4155 5.25 11.7016 5.25 12ZM24.75 12C24.75 12.2984 24.6315 12.5845 24.4205 12.7955C24.2095 13.0065 23.9234 13.125 23.625 13.125H21.375C21.0766 13.125 20.7905 13.0065 20.5795 12.7955C20.3685 12.5845 20.25 12.2984 20.25 12C20.25 11.7016 20.3685 11.4155 20.5795 11.2045C20.7905 10.9935 21.0766 10.875 21.375 10.875H23.625C23.9234 10.875 24.2095 10.9935 24.4205 11.2045C24.6315 11.4155 24.75 11.7016 24.75 12ZM12.75 19.5C13.0484 19.5 13.3345 19.6185 13.5455 19.8295C13.7565 20.0405 13.875 20.3266 13.875 20.625V22.875C13.875 23.1734 13.7565 23.4595 13.5455 23.6705C13.3345 23.8815 13.0484 24 12.75 24C12.4516 24 12.1655 23.8815 11.9545 23.6705C11.7435 23.4595 11.625 23.1734 11.625 22.875V20.625C11.625 20.3266 11.7435 20.0405 11.9545 19.8295C12.1655 19.6185 12.4516 19.5 12.75 19.5ZM18.054 17.304C18.2649 17.0933 18.5509 16.975 18.849 16.975C19.1471 16.975 19.4331 17.0933 19.644 17.304L21.2355 18.894C21.4405 19.1061 21.5541 19.3902 21.5516 19.6852C21.5492 19.9802 21.431 20.2624 21.2225 20.4711C21.0141 20.6797 20.7319 20.7982 20.437 20.8009C20.142 20.8036 19.8578 20.6903 19.6455 20.4855L18.054 18.8955C17.9495 18.791 17.8665 18.667 17.8099 18.5304C17.7534 18.3939 17.7242 18.2475 17.7242 18.0997C17.7242 17.952 17.7534 17.8056 17.8099 17.6691C17.8665 17.5325 17.9495 17.4085 18.054 17.304ZM4.2645 3.5145C4.36898 3.40996 4.49303 3.32703 4.62956 3.27044C4.7661 3.21386 4.91245 3.18474 5.06025 3.18474C5.20805 3.18474 5.3544 3.21386 5.49094 3.27044C5.62747 3.32703 5.75152 3.40996 5.856 3.5145L7.446 5.106C7.64461 5.31939 7.75277 5.60147 7.74773 5.89295C7.7427 6.18442 7.62486 6.4626 7.419 6.669C7.2126 6.87486 6.93442 6.9927 6.64295 6.99773C6.35147 7.00277 6.06939 6.89461 5.856 6.696L4.266 5.106C4.05532 4.89506 3.93699 4.60913 3.93699 4.311C3.93699 4.01287 4.05532 3.72694 4.266 3.516L4.2645 3.5145Z" fill="black"/>
</g>
<defs>
<clipPath id="clip0_102_26">
<rect width="24" height="24" fill="white" transform="translate(0.75)"/>
</clipPath>
</defs>
</svg>
