<svg width="16" height="16" viewBox="0 0 16 16" fill="none" xmlns="http://www.w3.org/2000/svg">
<path d="M13.4999 6.0005C12.5699 3.6455 10.4519 2 7.98442 2C5.34742 2 3.10642 3.8825 2.29492 6.5" stroke="black" stroke-width="1.5" stroke-linecap="round" stroke-linejoin="round"/>
<path d="M10.9925 6.15801H13.1C13.2182 6.15801 13.3352 6.13473 13.4444 6.0895C13.5536 6.04427 13.6528 5.97798 13.7364 5.89441C13.8199 5.81084 13.8862 5.71162 13.9315 5.60243C13.9767 5.49323 14 5.3762 14 5.25801V2.82501M2.50098 9.99951C3.42948 12.3545 5.54898 14 8.01498 14C10.652 14 12.893 12.1175 13.7045 9.50001" stroke="black" stroke-width="1.5" stroke-linecap="round" stroke-linejoin="round"/>
<path d="M5.0075 9.842H2.9C2.66131 9.842 2.43239 9.93682 2.2636 10.1056C2.09482 10.2744 2 10.5033 2 10.742V13.175" stroke="black" stroke-width="1.5" stroke-linecap="round" stroke-linejoin="round"/>
</svg>
