<svg width="25" height="24" viewBox="0 0 25 24" fill="none" xmlns="http://www.w3.org/2000/svg">
<path d="M20.4999 9.00075C19.1049 5.46825 15.9279 3 12.2266 3C8.27113 3 4.90963 5.82375 3.69238 9.75" stroke="black" stroke-width="2.25" stroke-linecap="round" stroke-linejoin="round"/>
<path d="M16.7392 9.237H19.9005C20.0777 9.237 20.2533 9.20208 20.4171 9.13424C20.5809 9.0664 20.7297 8.96696 20.855 8.8416C20.9804 8.71624 21.0798 8.56741 21.1477 8.40362C21.2155 8.23983 21.2505 8.06429 21.2505 7.88701V4.2375M4.00195 14.9993C5.3947 18.5318 8.57395 21 12.273 21C16.2285 21 19.59 18.1763 20.8072 14.25" stroke="black" stroke-width="2.25" stroke-linecap="round" stroke-linejoin="round"/>
<path d="M7.76125 14.763H4.6C4.24196 14.763 3.89858 14.9052 3.6454 15.1584C3.39223 15.4116 3.25 15.755 3.25 16.113V19.7625" stroke="black" stroke-width="2.25" stroke-linecap="round" stroke-linejoin="round"/>
</svg>
