<svg width="24" height="24" viewBox="0 0 24 24" fill="none" xmlns="http://www.w3.org/2000/svg">
<path d="M12.0408 2.00006C6.58078 2.00006 2.13078 6.45006 2.13078 11.9101C2.13078 13.6601 2.59078 15.3601 3.45078 16.8601L2.05078 22.0001L7.30078 20.6201C8.75078 21.4101 10.3808 21.8301 12.0408 21.8301C17.5008 21.8301 21.9508 17.3801 21.9508 11.9201C21.9508 9.27006 20.9208 6.78006 19.0508 4.91006C18.134 3.98399 17.042 3.24973 15.8384 2.75011C14.6349 2.25049 13.3439 1.99552 12.0408 2.00006ZM12.0508 3.67006C14.2508 3.67006 16.3108 4.53006 17.8708 6.09006C18.6364 6.85541 19.2434 7.76438 19.6569 8.76482C20.0705 9.76526 20.2825 10.8375 20.2808 11.9201C20.2808 16.4601 16.5808 20.1501 12.0408 20.1501C10.5608 20.1501 9.11078 19.7601 7.85078 19.0001L7.55078 18.8301L4.43078 19.6501L5.26078 16.6101L5.06078 16.2901C4.23472 14.9787 3.79779 13.4599 3.80078 11.9101C3.81078 7.37006 7.50078 3.67006 12.0508 3.67006ZM8.53078 7.33006C8.37078 7.33006 8.10078 7.39006 7.87078 7.64006C7.65078 7.89006 7.00078 8.50006 7.00078 9.71006C7.00078 10.9301 7.89078 12.1001 8.00078 12.2701C8.14078 12.4401 9.76078 14.9401 12.2508 16.0001C12.8408 16.2701 13.3008 16.4201 13.6608 16.5301C14.2508 16.7201 14.7908 16.6901 15.2208 16.6301C15.7008 16.5601 16.6808 16.0301 16.8908 15.4501C17.1008 14.8701 17.1008 14.3801 17.0408 14.2701C16.9708 14.1701 16.8108 14.1101 16.5608 14.0001C16.3108 13.8601 15.0908 13.2601 14.8708 13.1801C14.6408 13.1001 14.5008 13.0601 14.3108 13.3001C14.1508 13.5501 13.6708 14.1101 13.5308 14.2701C13.3808 14.4401 13.2408 14.4601 13.0008 14.3401C12.7408 14.2101 11.9408 13.9501 11.0008 13.1101C10.2608 12.4501 9.77078 11.6401 9.62078 11.3901C9.50078 11.1501 9.61078 11.0001 9.73078 10.8901C9.84078 10.7801 10.0008 10.6001 10.1008 10.4501C10.2308 10.3101 10.2708 10.2001 10.3508 10.0401C10.4308 9.87006 10.3908 9.73006 10.3308 9.61006C10.2708 9.50006 9.77078 8.26006 9.56078 7.77006C9.36078 7.29006 9.16078 7.35006 9.00078 7.34006C8.86078 7.34006 8.70078 7.33006 8.53078 7.33006Z" fill="black"/>
</svg>
